<svg width="18" height="20" viewBox="0 0 18 20" fill="none" xmlns="http://www.w3.org/2000/svg">
<path fill-rule="evenodd" clip-rule="evenodd" d="M18 1.30435C18 0.583976 17.6101 0 17.129 0H0.870968C0.389945 0 0 0.583976 0 1.30435C0 2.02472 0.389945 2.6087 0.870968 2.6087L9 4L17.129 2.6087C17.6101 2.6087 18 2.02472 18 1.30435Z" fill="#EDEDED"/>
<path fill-rule="evenodd" clip-rule="evenodd" d="M18 18.6957C18 17.9753 17.6101 17.3913 17.129 17.3913L9 16.5L0.870968 17.3913C0.389945 17.3913 0 17.9753 0 18.6957C0 19.416 0.389945 20 0.870968 20H17.129C17.6101 20 18 19.416 18 18.6957Z" fill="#EDEDED"/>
</svg>
