<svg width="16" height="15" viewBox="0 0 16 15" fill="none" xmlns="http://www.w3.org/2000/svg">
<path fill-rule="evenodd" clip-rule="evenodd" d="M3.20907 3.81343V3.71956C3.20907 2.02207 4.68933 0.539936 6.80686 0.117193C7.58956 -0.0390642 8.41045 -0.0390642 9.19314 0.117193C11.3107 0.539936 12.7909 2.02208 12.7909 3.71956V3.81343H14.305C14.8812 3.81343 15.3702 4.14152 15.4538 4.58415L15.6743 5.75284C16.1086 8.05384 16.1086 10.3917 15.6743 12.6927C15.4646 13.8039 14.3104 14.663 12.8716 14.7788L12.2373 14.8299C9.41999 15.0567 6.58 15.0567 3.76267 14.8299L3.12838 14.7788C1.68955 14.663 0.535399 13.8039 0.32569 12.6927C-0.108563 10.3917 -0.108563 8.05384 0.32569 5.75283L0.546248 4.58415C0.629782 4.14152 1.11881 3.81343 1.69501 3.81343H3.20907ZM7.18365 1.25478C7.71917 1.14787 8.28083 1.14787 8.81636 1.25478C10.2652 1.54403 11.278 2.55813 11.278 3.71956V3.81343H4.722V3.71956C4.722 2.55812 5.73481 1.54403 7.18365 1.25478ZM3.20907 4.98803V6.74993C3.20907 7.07428 3.54775 7.33723 3.96554 7.33723C4.38332 7.33723 4.722 7.07428 4.722 6.74993V4.98803H11.278V6.74993C11.278 7.07428 11.6167 7.33723 12.0345 7.33723C12.4523 7.33723 12.7909 7.07428 12.7909 6.74993V4.98803H14.0009L14.1774 5.92312C14.5903 8.11121 14.5903 10.3343 14.1774 12.5224C14.068 13.102 13.466 13.5501 12.7156 13.6105L12.0813 13.6615C9.3677 13.88 6.6323 13.88 3.91873 13.6615L3.28444 13.6105C2.53399 13.5501 1.93201 13.102 1.82263 12.5224C1.40969 10.3343 1.40969 8.1112 1.82263 5.92312L1.99911 4.98803H3.20907Z" fill="#EDEDED"/>
</svg>
