<svg width="27" height="28" viewBox="0 0 27 28" fill="none" xmlns="http://www.w3.org/2000/svg">
<path fill-rule="evenodd" clip-rule="evenodd" d="M5.41531 7.11841V6.94318C5.41531 3.77454 7.91324 1.00788 11.4866 0.218759C12.8074 -0.0729198 14.1926 -0.0729199 15.5134 0.218759C19.0868 1.00788 21.5847 3.77454 21.5847 6.94318V7.11841H24.1397C25.112 7.11841 25.9372 7.73084 26.0782 8.55708L26.4504 10.7386C27.1832 15.0338 27.1832 19.3978 26.4504 23.693C26.0965 25.7673 24.1489 27.3709 21.7209 27.5871L20.6505 27.6824C15.8962 28.1059 11.1038 28.1059 6.34951 27.6824L5.27914 27.5871C2.85111 27.3709 0.903486 25.7673 0.549602 23.693C-0.183201 19.3978 -0.1832 15.0338 0.549602 10.7386L0.921794 8.55707C1.06276 7.73084 1.88799 7.11841 2.86033 7.11841H5.41531ZM12.1224 2.34226C13.0261 2.14269 13.9739 2.14269 14.8776 2.34226C17.3225 2.88219 19.0316 4.77517 19.0316 6.94318V7.11841H7.96837V6.94318C7.96837 4.77516 9.67748 2.88219 12.1224 2.34226ZM5.41531 9.31099V12.5999C5.41531 13.2053 5.98683 13.6962 6.69184 13.6962C7.39685 13.6962 7.96837 13.2053 7.96837 12.5999V9.31099H19.0316V12.5999C19.0316 13.2053 19.6032 13.6962 20.3082 13.6962C21.0132 13.6962 21.5847 13.2053 21.5847 12.5999V9.31099H23.6265L23.9243 11.0565C24.6211 15.1409 24.6211 19.2908 23.9243 23.3752C23.7397 24.457 22.7239 25.2934 21.4575 25.4062L20.3871 25.5015C15.808 25.9094 11.192 25.9094 6.61286 25.5015L5.54249 25.4062C4.2761 25.2934 3.26027 24.4571 3.07569 23.3752C2.37885 19.2908 2.37885 15.1409 3.07569 11.0565L3.37349 9.31099H5.41531Z" fill="url(#paint0_linear_2_401)"/>
<defs>
<linearGradient id="paint0_linear_2_401" x1="-2.29286e-07" y1="4.66667" x2="24.3648" y2="23.5424" gradientUnits="userSpaceOnUse">
<stop stop-color="#181818"/>
<stop offset="1" stop-color="#181818" stop-opacity="0.5"/>
</linearGradient>
</defs>
</svg>
