<svg width="302" height="65" viewBox="0 0 302 65" fill="none" xmlns="http://www.w3.org/2000/svg">
<path d="M0.172376 54V1.09H13.1224V42.974H31.4744V1.09H44.4244V42.974H50.9364V64.36H39.4664V54H0.172376ZM58.8521 54V1.09H92.0041V12.19H71.8021V21.81H87.9341V32.91H71.8021V42.9H93.0401V54H58.8521ZM97.1228 42.826C99.3921 42.53 101.242 41.716 102.673 40.384C104.153 39.052 105.361 36.5853 106.299 32.984C107.236 29.3827 107.705 24.548 107.705 18.48V1.09H143.225V54H130.275V12.19H119.989V18.628C119.989 31.3067 118.089 40.4827 114.291 46.156C110.492 51.78 104.769 54.592 97.1228 54.592V42.826ZM154.315 54V1.09H167.265V25.806L166.673 34.834H166.821C168.4 31.134 169.88 28.1247 171.261 25.806L185.913 1.09H199.011V54H186.061V29.358L186.653 20.33H186.505C184.926 24.03 183.446 27.0393 182.065 29.358L167.339 54H154.315ZM208.55 50.892L214.174 41.198C216.295 42.974 218.244 43.862 220.02 43.862C222.092 43.862 223.498 42.9493 224.238 41.124L203.814 1.09H218.022L226.828 20.108L229.714 27.212H229.862C230.405 24.992 231.095 22.6487 231.934 20.182L238.446 1.09H252.062L236.448 40.754C235.708 42.6287 234.943 44.2813 234.154 45.712C233.414 47.0933 232.403 48.5487 231.12 50.078C229.887 51.6073 228.382 52.7913 226.606 53.63C224.83 54.4687 222.832 54.888 220.612 54.888C216.369 54.888 212.349 53.556 208.55 50.892ZM252.603 27.434C252.603 19.6393 255.193 13.152 260.373 7.972C265.602 2.792 272.262 0.201996 280.353 0.201996C284.053 0.201996 287.654 0.84333 291.157 2.126C294.659 3.35933 297.669 5.20933 300.185 7.676L294.191 17.444C292.415 15.8653 290.318 14.5827 287.901 13.596C285.533 12.56 283.214 12.042 280.945 12.042C276.011 12.042 272.287 13.522 269.771 16.482C267.255 19.3927 265.997 22.9447 265.997 27.138C265.997 31.43 267.279 35.1547 269.845 38.312C272.459 41.4693 276.159 43.048 280.945 43.048C285.977 43.048 290.663 40.8773 295.005 36.536L301.665 46.008C295.942 51.928 288.838 54.888 280.353 54.888C271.966 54.888 265.232 52.3227 260.151 47.192C255.119 42.012 252.603 35.426 252.603 27.434Z" fill="url(#paint0_linear_2_507)"/>
<path d="M0.172376 54V1.09H13.1224V42.974H31.4744V1.09H44.4244V42.974H50.9364V64.36H39.4664V54H0.172376ZM58.8521 54V1.09H92.0041V12.19H71.8021V21.81H87.9341V32.91H71.8021V42.9H93.0401V54H58.8521ZM97.1228 42.826C99.3921 42.53 101.242 41.716 102.673 40.384C104.153 39.052 105.361 36.5853 106.299 32.984C107.236 29.3827 107.705 24.548 107.705 18.48V1.09H143.225V54H130.275V12.19H119.989V18.628C119.989 31.3067 118.089 40.4827 114.291 46.156C110.492 51.78 104.769 54.592 97.1228 54.592V42.826ZM154.315 54V1.09H167.265V25.806L166.673 34.834H166.821C168.4 31.134 169.88 28.1247 171.261 25.806L185.913 1.09H199.011V54H186.061V29.358L186.653 20.33H186.505C184.926 24.03 183.446 27.0393 182.065 29.358L167.339 54H154.315ZM208.55 50.892L214.174 41.198C216.295 42.974 218.244 43.862 220.02 43.862C222.092 43.862 223.498 42.9493 224.238 41.124L203.814 1.09H218.022L226.828 20.108L229.714 27.212H229.862C230.405 24.992 231.095 22.6487 231.934 20.182L238.446 1.09H252.062L236.448 40.754C235.708 42.6287 234.943 44.2813 234.154 45.712C233.414 47.0933 232.403 48.5487 231.12 50.078C229.887 51.6073 228.382 52.7913 226.606 53.63C224.83 54.4687 222.832 54.888 220.612 54.888C216.369 54.888 212.349 53.556 208.55 50.892ZM252.603 27.434C252.603 19.6393 255.193 13.152 260.373 7.972C265.602 2.792 272.262 0.201996 280.353 0.201996C284.053 0.201996 287.654 0.84333 291.157 2.126C294.659 3.35933 297.669 5.20933 300.185 7.676L294.191 17.444C292.415 15.8653 290.318 14.5827 287.901 13.596C285.533 12.56 283.214 12.042 280.945 12.042C276.011 12.042 272.287 13.522 269.771 16.482C267.255 19.3927 265.997 22.9447 265.997 27.138C265.997 31.43 267.279 35.1547 269.845 38.312C272.459 41.4693 276.159 43.048 280.945 43.048C285.977 43.048 290.663 40.8773 295.005 36.536L301.665 46.008C295.942 51.928 288.838 54.888 280.353 54.888C271.966 54.888 265.232 52.3227 260.151 47.192C255.119 42.012 252.603 35.426 252.603 27.434Z" fill="url(#paint1_linear_2_507)"/>
<defs>
<linearGradient id="paint0_linear_2_507" x1="157.973" y1="-11" x2="480.792" y2="52.6868" gradientUnits="userSpaceOnUse">
<stop stop-color="#008278"/>
<stop offset="0.9999" stop-color="#008278"/>
<stop offset="1" stop-color="white" stop-opacity="0"/>
</linearGradient>
<linearGradient id="paint1_linear_2_507" x1="18.3243" y1="29" x2="304.339" y2="44.9226" gradientUnits="userSpaceOnUse">
<stop stop-color="#04C8BA" stop-opacity="0.38"/>
<stop offset="1" stop-color="#3CFF29" stop-opacity="0.84"/>
</linearGradient>
</defs>
</svg>
