<svg width="28" height="29" viewBox="0 0 28 29" fill="none" xmlns="http://www.w3.org/2000/svg">
<path fill-rule="evenodd" clip-rule="evenodd" d="M6.32258 7.25894C6.32258 3.24994 9.75988 0 14 0C18.2401 0 21.6774 3.24994 21.6774 7.25894C21.6774 11.2679 18.2401 14.5179 14 14.5179C9.75988 14.5179 6.32258 11.2679 6.32258 7.25894ZM14 2.56198C11.2564 2.56198 9.03226 4.66488 9.03226 7.25894C9.03226 9.853 11.2564 11.9559 14 11.9559C16.7436 11.9559 18.9677 9.853 18.9677 7.25894C18.9677 4.66488 16.7436 2.56198 14 2.56198Z" fill="url(#paint0_linear_2_399)"/>
<path fill-rule="evenodd" clip-rule="evenodd" d="M6.77419 19.6418C4.52942 19.6418 2.70968 21.3624 2.70968 23.4848V25.5144C2.70968 25.5453 2.73336 25.5716 2.76562 25.5766C10.206 26.7252 17.794 26.7252 25.2344 25.5766C25.2666 25.5716 25.2903 25.5453 25.2903 25.5144V23.4848C25.2903 21.3624 23.4706 19.6418 21.2258 19.6418H20.61C20.5624 19.6418 20.5151 19.649 20.4699 19.6629L18.9064 20.1456C15.7183 21.1299 12.2817 21.1299 9.09365 20.1456L7.53014 19.6629C7.48488 19.649 7.43757 19.6418 7.38996 19.6418H6.77419ZM0 23.4848C0 19.9475 3.03291 17.0799 6.77419 17.0799H7.38996C7.72323 17.0799 8.05441 17.1297 8.37123 17.2275L9.93474 17.7102C12.5763 18.5257 15.4237 18.5257 18.0653 17.7102L19.6288 17.2275C19.9456 17.1297 20.2768 17.0799 20.61 17.0799H21.2258C24.9671 17.0799 28 19.9475 28 23.4848V25.5144C28 26.8009 27.0139 27.8978 25.671 28.1051C17.9415 29.2983 10.0585 29.2983 2.32901 28.1051C0.986112 27.8978 0 26.8009 0 25.5144V23.4848Z" fill="url(#paint1_linear_2_399)"/>
<defs>
<linearGradient id="paint0_linear_2_399" x1="-5.38462" y1="6.76667" x2="25.3674" y2="32.185" gradientUnits="userSpaceOnUse">
<stop stop-color="#181818"/>
<stop offset="1" stop-color="#181818" stop-opacity="0.5"/>
</linearGradient>
<linearGradient id="paint1_linear_2_399" x1="-5.38462" y1="6.76667" x2="25.3674" y2="32.185" gradientUnits="userSpaceOnUse">
<stop stop-color="#181818"/>
<stop offset="1" stop-color="#181818" stop-opacity="0.5"/>
</linearGradient>
</defs>
</svg>
