<svg width="13" height="15" viewBox="0 0 13 15" fill="none" xmlns="http://www.w3.org/2000/svg">
<path fill-rule="evenodd" clip-rule="evenodd" d="M2.93548 3.75463C2.93548 1.681 4.53137 0 6.5 0C8.46863 0 10.0645 1.681 10.0645 3.75463C10.0645 5.82825 8.46863 7.50925 6.5 7.50925C4.53137 7.50925 2.93548 5.82825 2.93548 3.75463ZM6.5 1.32516C5.22618 1.32516 4.19355 2.41287 4.19355 3.75463C4.19355 5.09638 5.22618 6.18409 6.5 6.18409C7.77382 6.18409 8.80645 5.09638 8.80645 3.75463C8.80645 2.41287 7.77382 1.32516 6.5 1.32516Z" fill="#EDEDED"/>
<path fill-rule="evenodd" clip-rule="evenodd" d="M3.14516 10.1596C2.10295 10.1596 1.25806 11.0495 1.25806 12.1473V13.1971C1.25806 13.2131 1.26906 13.2267 1.28404 13.2293C4.73848 13.8234 8.26152 13.8234 11.716 13.2293C11.7309 13.2267 11.7419 13.2131 11.7419 13.1971V12.1473C11.7419 11.0495 10.8971 10.1596 9.85484 10.1596H9.56895C9.54684 10.1596 9.52488 10.1633 9.50386 10.1705L8.77795 10.4202C7.29777 10.9293 5.70223 10.9293 4.22205 10.4202L3.49614 10.1705C3.47512 10.1633 3.45316 10.1596 3.43105 10.1596H3.14516ZM0 12.1473C0 10.3177 1.40814 8.83441 3.14516 8.83441H3.43105C3.58579 8.83441 3.73955 8.86019 3.88664 8.91078L4.61256 9.16045C5.83899 9.58228 7.16101 9.58228 8.38744 9.16045L9.11336 8.91078C9.26045 8.86019 9.41421 8.83441 9.56895 8.83441H9.85484C11.5919 8.83441 13 10.3177 13 12.1473V13.1971C13 13.8625 12.5422 14.4299 11.9187 14.5371C8.32998 15.1543 4.67002 15.1543 1.08132 14.5371C0.457838 14.4299 0 13.8625 0 13.1971V12.1473Z" fill="#EDEDED"/>
</svg>
