<svg width="15" height="15" viewBox="0 0 15 15" fill="none" xmlns="http://www.w3.org/2000/svg">
<path fill-rule="evenodd" clip-rule="evenodd" d="M3.34357 0.000395217C4.14551 0.0113705 4.71699 0.623793 5.43996 1.39865C5.61873 1.58962 5.81185 1.79815 6.02795 2.01766C7.07543 3.08592 6.77748 3.95736 6.53697 4.65686C6.27564 5.42001 6.04949 6.07853 7.40353 7.45849C8.75757 8.83846 9.40299 8.60797 10.1511 8.33944C10.8382 8.09506 11.6911 7.78921 12.7407 8.85748C12.9539 9.07479 13.155 9.26942 13.3416 9.45015C14.1048 10.1906 14.7079 10.7752 14.718 11.5947C14.7258 12.2928 14.3094 13.0054 13.2813 14.0532L12.8261 13.7386L13.2117 14.1212C12.9841 14.359 12.3789 14.9927 11.1935 15H11.172C9.38289 15 7.0503 13.5483 4.23884 10.6838C1.4159 7.80751 -0.0106488 5.42294 5.98422e-05 3.59591C0.00658183 2.38863 0.627601 1.77035 0.860932 1.5384L0.880848 1.51624L0.929136 1.4667C1.95938 0.416726 2.66727 -0.0149702 3.34357 0.000395217ZM3.32993 1.09793H3.32419C3.00179 1.09793 2.51217 1.42719 1.82931 2.10319L1.69219 2.24043L1.69374 2.24009C1.6946 2.24009 1.68203 2.25379 1.66206 2.27455L1.61405 2.3235C1.44031 2.49545 1.08062 2.85325 1.077 3.60176C1.07129 4.64881 1.74687 6.5929 4.99986 9.90745C8.23706 13.2059 10.1418 13.9025 11.172 13.9025H11.1871C11.9215 13.8981 12.2719 13.5315 12.4406 13.3552C12.4916 13.3018 12.5332 13.2615 12.5627 13.2374C13.2784 12.5035 13.6446 11.9584 13.641 11.6079C13.6367 11.2508 13.2009 10.8294 12.5985 10.2448C12.4069 10.0596 12.1987 9.85696 11.979 9.63307C11.4089 9.0543 11.1282 9.15308 10.5072 9.37551C9.64925 9.68209 8.47398 10.1021 6.64251 8.23408C4.81033 6.36754 5.22099 5.16977 5.52037 4.29467C5.73719 3.66249 5.83626 3.37494 5.26694 2.79398C5.04437 2.56716 4.84407 2.35204 4.65956 2.15448C4.08951 1.54426 3.67813 1.10305 3.32993 1.09793ZM9.51004 2.60338C11.0041 2.89898 12.1578 4.07407 12.4486 5.59744C12.5053 5.89597 12.315 6.18352 12.0236 6.24133C11.9884 6.24791 11.9539 6.25157 11.9194 6.25157C11.6667 6.25157 11.442 6.07011 11.3918 5.80817C11.185 4.72527 10.3658 3.89041 9.30471 3.68042C9.01251 3.62262 8.82225 3.33506 8.87897 3.03727C8.93569 2.73947 9.22286 2.54484 9.51004 2.60338ZM9.46704 0.00456584C12.3948 0.336021 14.6685 2.65035 14.9966 5.63344C15.0296 5.9349 14.8171 6.20635 14.5221 6.24001C14.502 6.24221 14.4811 6.24367 14.461 6.24367C14.1904 6.24367 13.9578 6.0366 13.9269 5.75637C13.6548 3.28619 11.7723 1.36916 9.34786 1.09478C9.05278 1.06112 8.83955 0.790399 8.87258 0.488943C8.90489 0.18822 9.16837 -0.0334819 9.46704 0.00456584Z" fill="#EDEDED"/>
</svg>
