<svg width="20" height="19" viewBox="0 0 20 19" fill="none" xmlns="http://www.w3.org/2000/svg">
<path fill-rule="evenodd" clip-rule="evenodd" d="M4.01134 4.83035V4.71144C4.01134 2.56129 5.86166 0.683919 8.50858 0.148444C9.48695 -0.0494813 10.5131 -0.0494813 11.4914 0.148444C14.1383 0.683919 15.9887 2.5613 15.9887 4.71145V4.83035H17.8812C18.6015 4.83035 19.2128 5.24593 19.3172 5.80659L19.5929 7.28693C20.1357 10.2015 20.1357 13.1628 19.5929 16.0774C19.3308 17.4849 17.8881 18.5731 16.0895 18.7198L15.2967 18.7845C11.775 19.0718 8.225 19.0718 4.70334 18.7845L3.91048 18.7198C2.11194 18.5731 0.669249 17.4849 0.407112 16.0774C-0.135704 13.1628 -0.135704 10.2015 0.407113 7.28692L0.682811 5.80659C0.787228 5.24593 1.39851 4.83035 2.11876 4.83035H4.01134ZM8.97956 1.58939C9.64897 1.45397 10.351 1.45397 11.0205 1.58939C12.8315 1.95577 14.0975 3.24029 14.0975 4.71145V4.83035H5.9025V4.71144C5.9025 3.24029 7.16851 1.95577 8.97956 1.58939ZM4.01134 6.31817V8.54991C4.01134 8.96076 4.43469 9.29382 4.95692 9.29382C5.47915 9.29382 5.9025 8.96076 5.9025 8.54991V6.31817H14.0975V8.54991C14.0975 8.96076 14.5209 9.29382 15.0431 9.29382C15.5653 9.29382 15.9887 8.96076 15.9887 8.54991V6.31817H17.5011L17.7217 7.50262C18.2379 10.2742 18.2379 13.0902 17.7217 15.8617C17.585 16.5959 16.8325 17.1634 15.8944 17.2399L15.1016 17.3046C11.7096 17.5814 8.29038 17.5814 4.89841 17.3046L4.10555 17.2399C3.16748 17.1634 2.41501 16.5959 2.27829 15.8617C1.76211 13.0902 1.76211 10.2742 2.27829 7.50262L2.49888 6.31817H4.01134Z" fill="#F6F6F6"/>
</svg>
